<?xml version="1.0" encoding="UTF-8" standalone="no"?>
<!DOCTYPE svg PUBLIC "-//W3C//DTD SVG 1.1//EN"
 "http://www.w3.org/Graphics/SVG/1.1/DTD/svg11.dtd">
<!-- Generated by graphviz version 2.47.0 (20210316.0004)
 -->
<!-- Title: dependencies Pages: 1 -->
<svg width="995pt" height="211pt"
 viewBox="0.00 0.00 995.00 211.00" xmlns="http://www.w3.org/2000/svg" xmlns:xlink="http://www.w3.org/1999/xlink">
<g id="graph0" class="graph" transform="scale(1 1) rotate(0) translate(4 207)">
<title>dependencies</title>
<polygon fill="white" stroke="transparent" points="-4,4 -4,-207 991,-207 991,4 -4,4"/>
<text text-anchor="start" x="472.51" y="-42.4" font-family="Times-12" font-weight="bold" font-size="14.00">Legend</text>
<polygon fill="#ffffb3" stroke="transparent" points="259.5,-10 259.5,-30 279.5,-30 279.5,-10 259.5,-10"/>
<text text-anchor="start" x="283.13" y="-15.4" font-family="Times-12" font-size="14.00"> &#160;Declarations</text>
<polygon fill="#8dd3c7" stroke="transparent" points="372.5,-10 372.5,-30 392.5,-30 392.5,-10 372.5,-10"/>
<text text-anchor="start" x="396.23" y="-15.4" font-family="Times-12" font-size="14.00"> &#160;Module</text>
<polygon fill="#80b1d3" stroke="transparent" points="458.5,-10 458.5,-30 478.5,-30 478.5,-10 458.5,-10"/>
<text text-anchor="start" x="482.28" y="-15.4" font-family="Times-12" font-size="14.00"> &#160;Bootstrap</text>
<polygon fill="#fdb462" stroke="transparent" points="555.5,-10 555.5,-30 575.5,-30 575.5,-10 555.5,-10"/>
<text text-anchor="start" x="579.17" y="-15.4" font-family="Times-12" font-size="14.00"> &#160;Providers</text>
<polygon fill="#fb8072" stroke="transparent" points="651.5,-10 651.5,-30 671.5,-30 671.5,-10 651.5,-10"/>
<text text-anchor="start" x="675.23" y="-15.4" font-family="Times-12" font-size="14.00"> &#160;Exports</text>
<g id="clust1" class="cluster">
<title>cluster_AuthModule</title>
<polygon fill="none" stroke="black" stroke-dasharray="1,5" points="8,-70 8,-195 979,-195 979,-70 8,-70"/>
</g>
<g id="clust6" class="cluster">
<title>cluster_AuthModule_providers</title>
<polygon fill="none" stroke="black" points="16,-78 16,-130 971,-130 971,-78 16,-78"/>
</g>
<!-- AuthService -->
<g id="node1" class="node">
<title>AuthService</title>
<ellipse fill="#fdb462" stroke="black" cx="904" cy="-104" rx="59.11" ry="18"/>
<text text-anchor="middle" x="904" y="-99.8" font-family="Times,serif" font-size="14.00">AuthService</text>
</g>
<!-- AuthModule -->
<g id="node6" class="node">
<title>AuthModule</title>
<polygon fill="#8dd3c7" stroke="black" points="607.55,-187 604.55,-191 583.55,-191 580.55,-187 520.45,-187 520.45,-151 607.55,-151 607.55,-187"/>
<text text-anchor="middle" x="564" y="-164.8" font-family="Times,serif" font-size="14.00">AuthModule</text>
</g>
<!-- AuthService&#45;&gt;AuthModule -->
<g id="edge1" class="edge">
<title>AuthService&#45;&gt;AuthModule</title>
<path fill="none" stroke="black" d="M904,-122.28C904,-143.32 904,-175 904,-175 904,-175 617.75,-175 617.75,-175"/>
<polygon fill="black" stroke="black" points="617.75,-171.5 607.75,-175 617.75,-178.5 617.75,-171.5"/>
</g>
<!-- JwtStrategy -->
<g id="node2" class="node">
<title>JwtStrategy</title>
<ellipse fill="#fdb462" stroke="black" cx="770" cy="-104" rx="56.76" ry="18"/>
<text text-anchor="middle" x="770" y="-99.8" font-family="Times,serif" font-size="14.00">JwtStrategy</text>
</g>
<!-- JwtStrategy&#45;&gt;AuthModule -->
<g id="edge2" class="edge">
<title>JwtStrategy&#45;&gt;AuthModule</title>
<path fill="none" stroke="black" d="M770,-122.02C770,-139.37 770,-163 770,-163 770,-163 617.69,-163 617.69,-163"/>
<polygon fill="black" stroke="black" points="617.69,-159.5 607.69,-163 617.69,-166.5 617.69,-159.5"/>
</g>
<!-- RegistrationConfirmedListener -->
<g id="node3" class="node">
<title>RegistrationConfirmedListener</title>
<ellipse fill="#fdb462" stroke="black" cx="564" cy="-104" rx="131.94" ry="18"/>
<text text-anchor="middle" x="564" y="-99.8" font-family="Times,serif" font-size="14.00">RegistrationConfirmedListener</text>
</g>
<!-- RegistrationConfirmedListener&#45;&gt;AuthModule -->
<g id="edge3" class="edge">
<title>RegistrationConfirmedListener&#45;&gt;AuthModule</title>
<path fill="none" stroke="black" d="M564,-122.11C564,-122.11 564,-140.99 564,-140.99"/>
<polygon fill="black" stroke="black" points="560.5,-140.99 564,-150.99 567.5,-140.99 560.5,-140.99"/>
</g>
<!-- UserLoginListener -->
<g id="node4" class="node">
<title>UserLoginListener</title>
<ellipse fill="#fdb462" stroke="black" cx="330" cy="-104" rx="83.95" ry="18"/>
<text text-anchor="middle" x="330" y="-99.8" font-family="Times,serif" font-size="14.00">UserLoginListener</text>
</g>
<!-- UserLoginListener&#45;&gt;AuthModule -->
<g id="edge4" class="edge">
<title>UserLoginListener&#45;&gt;AuthModule</title>
<path fill="none" stroke="black" d="M330,-122.02C330,-139.37 330,-163 330,-163 330,-163 510.26,-163 510.26,-163"/>
<polygon fill="black" stroke="black" points="510.26,-166.5 520.26,-163 510.26,-159.5 510.26,-166.5"/>
</g>
<!-- UserRegisteredListener -->
<g id="node5" class="node">
<title>UserRegisteredListener</title>
<ellipse fill="#fdb462" stroke="black" cx="126" cy="-104" rx="102.4" ry="18"/>
<text text-anchor="middle" x="126" y="-99.8" font-family="Times,serif" font-size="14.00">UserRegisteredListener</text>
</g>
<!-- UserRegisteredListener&#45;&gt;AuthModule -->
<g id="edge5" class="edge">
<title>UserRegisteredListener&#45;&gt;AuthModule</title>
<path fill="none" stroke="black" d="M126,-122.28C126,-143.32 126,-175 126,-175 126,-175 510.4,-175 510.4,-175"/>
<polygon fill="black" stroke="black" points="510.4,-178.5 520.4,-175 510.4,-171.5 510.4,-178.5"/>
</g>
</g>
</svg>
