<?xml version="1.0" encoding="UTF-8" standalone="no"?>
<!DOCTYPE svg PUBLIC "-//W3C//DTD SVG 1.1//EN"
 "http://www.w3.org/Graphics/SVG/1.1/DTD/svg11.dtd">
<!-- Generated by graphviz version 2.47.0 (20210316.0004)
 -->
<!-- Title: dependencies Pages: 1 -->
<svg width="897pt" height="211pt"
 viewBox="0.00 0.00 897.00 211.00" xmlns="http://www.w3.org/2000/svg" xmlns:xlink="http://www.w3.org/1999/xlink">
<g id="graph0" class="graph" transform="scale(1 1) rotate(0) translate(4 207)">
<title>dependencies</title>
<polygon fill="white" stroke="transparent" points="-4,4 -4,-207 893,-207 893,4 -4,4"/>
<text text-anchor="start" x="423.51" y="-42.4" font-family="Times-12" font-weight="bold" font-size="14.00">Legend</text>
<polygon fill="#ffffb3" stroke="transparent" points="210.5,-10 210.5,-30 230.5,-30 230.5,-10 210.5,-10"/>
<text text-anchor="start" x="234.13" y="-15.4" font-family="Times-12" font-size="14.00"> &#160;Declarations</text>
<polygon fill="#8dd3c7" stroke="transparent" points="323.5,-10 323.5,-30 343.5,-30 343.5,-10 323.5,-10"/>
<text text-anchor="start" x="347.23" y="-15.4" font-family="Times-12" font-size="14.00"> &#160;Module</text>
<polygon fill="#80b1d3" stroke="transparent" points="409.5,-10 409.5,-30 429.5,-30 429.5,-10 409.5,-10"/>
<text text-anchor="start" x="433.28" y="-15.4" font-family="Times-12" font-size="14.00"> &#160;Bootstrap</text>
<polygon fill="#fdb462" stroke="transparent" points="506.5,-10 506.5,-30 526.5,-30 526.5,-10 506.5,-10"/>
<text text-anchor="start" x="530.17" y="-15.4" font-family="Times-12" font-size="14.00"> &#160;Providers</text>
<polygon fill="#fb8072" stroke="transparent" points="602.5,-10 602.5,-30 622.5,-30 622.5,-10 602.5,-10"/>
<text text-anchor="start" x="626.23" y="-15.4" font-family="Times-12" font-size="14.00"> &#160;Exports</text>
<g id="clust1" class="cluster">
<title>cluster_CountriesModule</title>
<polygon fill="none" stroke="black" stroke-dasharray="1,5" points="8,-70 8,-195 881,-195 881,-70 8,-70"/>
</g>
<g id="clust6" class="cluster">
<title>cluster_CountriesModule_providers</title>
<polygon fill="none" stroke="black" points="16,-78 16,-130 873,-130 873,-78 16,-78"/>
</g>
<!-- CountriesService -->
<g id="node1" class="node">
<title>CountriesService</title>
<ellipse fill="#fdb462" stroke="black" cx="787" cy="-104" rx="77.58" ry="18"/>
<text text-anchor="middle" x="787" y="-99.8" font-family="Times,serif" font-size="14.00">CountriesService</text>
</g>
<!-- CountriesModule -->
<g id="node5" class="node">
<title>CountriesModule</title>
<polygon fill="#8dd3c7" stroke="black" points="529.99,-187 526.99,-191 505.99,-191 502.99,-187 416.01,-187 416.01,-151 529.99,-151 529.99,-187"/>
<text text-anchor="middle" x="473" y="-164.8" font-family="Times,serif" font-size="14.00">CountriesModule</text>
</g>
<!-- CountriesService&#45;&gt;CountriesModule -->
<g id="edge1" class="edge">
<title>CountriesService&#45;&gt;CountriesModule</title>
<path fill="none" stroke="black" d="M787,-122.11C787,-141.34 787,-169 787,-169 787,-169 540.23,-169 540.23,-169"/>
<polygon fill="black" stroke="black" points="540.23,-165.5 530.23,-169 540.23,-172.5 540.23,-165.5"/>
</g>
<!-- CountryCreatedListener -->
<g id="node2" class="node">
<title>CountryCreatedListener</title>
<ellipse fill="#fdb462" stroke="black" cx="587" cy="-104" rx="104.21" ry="18"/>
<text text-anchor="middle" x="587" y="-99.8" font-family="Times,serif" font-size="14.00">CountryCreatedListener</text>
</g>
<!-- CountryCreatedListener&#45;&gt;CountriesModule -->
<g id="edge2" class="edge">
<title>CountryCreatedListener&#45;&gt;CountriesModule</title>
<path fill="none" stroke="black" d="M506.32,-115.62C506.32,-115.62 506.32,-140.85 506.32,-140.85"/>
<polygon fill="black" stroke="black" points="502.82,-140.85 506.32,-150.85 509.82,-140.85 502.82,-140.85"/>
</g>
<!-- CountryDeletedListener -->
<g id="node3" class="node">
<title>CountryDeletedListener</title>
<ellipse fill="#fdb462" stroke="black" cx="360" cy="-104" rx="104.21" ry="18"/>
<text text-anchor="middle" x="360" y="-99.8" font-family="Times,serif" font-size="14.00">CountryDeletedListener</text>
</g>
<!-- CountryDeletedListener&#45;&gt;CountriesModule -->
<g id="edge3" class="edge">
<title>CountryDeletedListener&#45;&gt;CountriesModule</title>
<path fill="none" stroke="black" d="M440.18,-115.62C440.18,-115.62 440.18,-140.85 440.18,-140.85"/>
<polygon fill="black" stroke="black" points="436.68,-140.85 440.18,-150.85 443.68,-140.85 436.68,-140.85"/>
</g>
<!-- CountryUpdatedListener -->
<g id="node4" class="node">
<title>CountryUpdatedListener</title>
<ellipse fill="#fdb462" stroke="black" cx="131" cy="-104" rx="107.08" ry="18"/>
<text text-anchor="middle" x="131" y="-99.8" font-family="Times,serif" font-size="14.00">CountryUpdatedListener</text>
</g>
<!-- CountryUpdatedListener&#45;&gt;CountriesModule -->
<g id="edge4" class="edge">
<title>CountryUpdatedListener&#45;&gt;CountriesModule</title>
<path fill="none" stroke="black" d="M131,-122.11C131,-141.34 131,-169 131,-169 131,-169 405.76,-169 405.76,-169"/>
<polygon fill="black" stroke="black" points="405.76,-172.5 415.76,-169 405.76,-165.5 405.76,-172.5"/>
</g>
</g>
</svg>
